<?xml version="1.0" encoding="UTF-8" standalone="no"?>
<!-- Generator: Adobe Illustrator 24.0.2, SVG Export Plug-In . SVG Version: 6.00 Build 0)  -->

<svg
   version="1.1"
   id="Layer_1"
   x="0px"
   y="0px"
   viewBox="0 0 110.84 110.84"
   xml:space="preserve"
   sodipodi:docname="logo.svg"
   width="110.84"
   height="110.84"
   inkscape:version="1.4 (e7c3feb1, 2024-10-09)"
   xmlns:inkscape="http://www.inkscape.org/namespaces/inkscape"
   xmlns:sodipodi="http://sodipodi.sourceforge.net/DTD/sodipodi-0.dtd"
   xmlns="http://www.w3.org/2000/svg"
   xmlns:svg="http://www.w3.org/2000/svg"><defs
   id="defs25" /><sodipodi:namedview
   id="namedview25"
   pagecolor="#ffffff"
   bordercolor="#000000"
   borderopacity="0.25"
   inkscape:showpageshadow="2"
   inkscape:pageopacity="0.0"
   inkscape:pagecheckerboard="0"
   inkscape:deskcolor="#d1d1d1"
   inkscape:zoom="1.26125"
   inkscape:cx="-28.939544"
   inkscape:cy="177.20515"
   inkscape:window-width="1200"
   inkscape:window-height="1186"
   inkscape:window-x="1870"
   inkscape:window-y="351"
   inkscape:window-maximized="0"
   inkscape:current-layer="Layer_1" />
<style
   type="text/css"
   id="style1">
	.st0{fill:#F0F0F0;}
	.st1{fill:#FFFFFF;}
	.st2{fill:url(#SVGID_1_);}
	.st3{fill:url(#SVGID_2_);}
	.st4{fill:url(#SVGID_3_);}
	.st5{fill:url(#SVGID_4_);}
	.st6{fill:url(#SVGID_5_);}
	.st7{fill:url(#SVGID_6_);}
	.st8{fill:url(#SVGID_7_);}
	.st9{fill:url(#SVGID_8_);}
	.st10{fill:url(#SVGID_9_);}
	.st11{fill:url(#SVGID_10_);}
	.st12{fill:url(#SVGID_11_);}
	.st13{fill:url(#SVGID_12_);}
	.st14{fill:url(#SVGID_13_);}
	.st15{fill:url(#SVGID_14_);}
	.st16{fill:url(#SVGID_15_);}
	.st17{fill:url(#SVGID_16_);}
	.st18{fill:#232323;}
	.st19{fill:url(#SVGID_17_);}
	.st20{fill:url(#SVGID_18_);}
	.st21{fill:url(#SVGID_19_);}
	.st22{fill:url(#SVGID_20_);}
	.st23{fill:url(#SVGID_21_);}
	.st24{fill:url(#SVGID_22_);}
	.st25{fill:url(#SVGID_23_);}
	.st26{fill:url(#SVGID_24_);}
	.st27{fill:url(#SVGID_25_);}
</style>
<g
   id="g25"
   transform="translate(-44.58,-44.58)">
	<g
   id="g24">
		<linearGradient
   id="SVGID_1_"
   gradientUnits="userSpaceOnUse"
   x1="100"
   y1="21.754999"
   x2="100"
   y2="93.7668">
			<stop
   offset="0"
   style="stop-color:#42210B"
   id="stop1" />
			<stop
   offset="0.4581"
   style="stop-color:#A47C52"
   id="stop2" />
			<stop
   offset="1"
   style="stop-color:#42210B"
   id="stop3" />
		</linearGradient>
		<path
   class="st2"
   d="m 60.67,76.06 v 11 c 0.25,0.3 0.57,0.57 0.97,0.82 6.84,4.34 13.7,8.65 20.43,13.15 5.44,3.64 10.73,7.53 16.05,11.35 1.37,0.98 2.62,0.94 3.95,-0.03 2.45,-1.78 4.9,-3.55 7.38,-5.28 6.17,-4.3 12.31,-8.66 18.56,-12.84 3.59,-2.4 7.38,-4.49 11.09,-6.7 0.08,-0.05 0.16,-0.1 0.23,-0.15 V 76.12 c -0.75,0.37 -1.39,0.7 -2.03,1.03 -12.08,6.23 -23.74,13.15 -34.89,20.94 -2.76,1.93 -1.99,1.86 -4.7,0.05 C 86.17,90.37 74.26,83.2 61.98,76.66 61.59,76.45 61.17,76.28 60.67,76.06 Z"
   id="path3"
   style="fill:url(#SVGID_1_)" />
		<linearGradient
   id="SVGID_2_"
   gradientUnits="userSpaceOnUse"
   x1="129.7998"
   y1="21.754999"
   x2="129.7998"
   y2="93.7668">
			<stop
   offset="0"
   style="stop-color:#42210B"
   id="stop4" />
			<stop
   offset="0.4581"
   style="stop-color:#A47C52"
   id="stop5" />
			<stop
   offset="1"
   style="stop-color:#42210B"
   id="stop6" />
		</linearGradient>
		<path
   class="st3"
   d="m 132.26,116.94 c -3.75,2.21 -7.48,4.46 -11.21,6.71 -0.28,0.17 -0.56,0.34 -0.79,0.56 v 10.4 c 0.2,0.01 0.48,-0.09 0.83,-0.3 2.08,-1.22 4.12,-2.5 6.22,-3.7 3.62,-2.07 7.25,-4.13 10.93,-6.12 0.44,-0.24 0.81,-0.5 1.09,-0.79 v -10.61 c -0.47,0.21 -0.85,0.38 -1.22,0.58 -1.95,1.09 -3.92,2.14 -5.85,3.27 z"
   id="path6"
   style="fill:url(#SVGID_2_)" />
		<linearGradient
   id="SVGID_3_"
   gradientUnits="userSpaceOnUse"
   x1="70.200302"
   y1="21.754999"
   x2="70.200302"
   y2="93.7668">
			<stop
   offset="0"
   style="stop-color:#42210B"
   id="stop7" />
			<stop
   offset="0.4581"
   style="stop-color:#A47C52"
   id="stop8" />
			<stop
   offset="1"
   style="stop-color:#42210B"
   id="stop9" />
		</linearGradient>
		<path
   class="st4"
   d="m 78.23,123.11 c -5.07,-2.89 -10.07,-5.89 -15.11,-8.84 -0.76,-0.45 -1.55,-0.84 -2.45,-1.31 v 10.48 c 0.35,0.43 0.83,0.79 1.43,1.13 5.62,3.16 11.18,6.43 16.75,9.67 0.37,0.22 0.66,0.34 0.89,0.36 v -10.28 c -0.37,-0.45 -0.87,-0.84 -1.51,-1.21 z"
   id="path9"
   style="fill:url(#SVGID_3_)" />
		<linearGradient
   id="SVGID_4_"
   gradientUnits="userSpaceOnUse"
   x1="129.7998"
   y1="21.754999"
   x2="129.7998"
   y2="93.7668">
			<stop
   offset="0"
   style="stop-color:#42210B"
   id="stop10" />
			<stop
   offset="0.4581"
   style="stop-color:#A47C52"
   id="stop11" />
			<stop
   offset="1"
   style="stop-color:#42210B"
   id="stop12" />
		</linearGradient>
		<path
   class="st5"
   d="m 132.35,98.65 c -3.65,2.24 -7.25,4.57 -10.89,6.83 -0.51,0.31 -0.9,0.66 -1.19,1.06 v 9.92 c 0.26,-0.11 0.45,-0.18 0.63,-0.28 1.55,-0.91 3.08,-1.87 4.64,-2.75 4.29,-2.43 8.59,-4.85 12.92,-7.21 0.35,-0.19 0.65,-0.4 0.88,-0.64 V 94.73 c -0.29,0.13 -0.55,0.25 -0.79,0.39 -2.08,1.16 -4.18,2.29 -6.2,3.53 z"
   id="path12"
   style="fill:url(#SVGID_4_)" />
		<linearGradient
   id="SVGID_5_"
   gradientUnits="userSpaceOnUse"
   x1="70.200302"
   y1="21.754999"
   x2="70.200302"
   y2="93.7668">
			<stop
   offset="0"
   style="stop-color:#42210B"
   id="stop13" />
			<stop
   offset="0.4581"
   style="stop-color:#A47C52"
   id="stop14" />
			<stop
   offset="1"
   style="stop-color:#42210B"
   id="stop15" />
		</linearGradient>
		<path
   class="st6"
   d="M 78.33,105.46 C 73.25,102.38 68.22,99.21 63.16,96.09 62.4,95.62 61.61,95.2 60.67,94.68 v 10.54 c 0.23,0.26 0.52,0.48 0.86,0.68 5.89,3.41 11.77,6.83 17.66,10.25 0.22,0.13 0.39,0.21 0.54,0.26 v -9.74 c -0.34,-0.45 -0.81,-0.85 -1.4,-1.21 z"
   id="path15"
   style="fill:url(#SVGID_5_)" />
		<linearGradient
   id="SVGID_6_"
   gradientUnits="userSpaceOnUse"
   x1="100"
   y1="21.754999"
   x2="100"
   y2="93.7668">
			<stop
   offset="0"
   style="stop-color:#42210B"
   id="stop16" />
			<stop
   offset="0.4581"
   style="stop-color:#A47C52"
   id="stop17" />
			<stop
   offset="1"
   style="stop-color:#42210B"
   id="stop18" />
		</linearGradient>
		<path
   class="st7"
   d="m 141.8,63.65 c -0.79,-0.91 -1.61,-1.79 -2.46,-2.64 V 56 c -0.75,0.37 -1.39,0.7 -2.03,1.03 -0.48,0.25 -0.97,0.5 -1.45,0.75 -1.05,0.55 -2.09,1.1 -3.13,1.65 -0.52,0.28 -1.03,0.56 -1.55,0.83 -0.61,0.33 -1.22,0.66 -1.83,1 -9.26,5.1 -18.26,10.63 -26.93,16.7 -2.76,1.93 -1.99,1.86 -4.7,0.05 C 88.9,72.08 79.88,66.51 70.64,61.29 70.04,60.95 69.43,60.62 68.83,60.28 68.32,60 67.81,59.71 67.3,59.43 66.27,58.86 65.24,58.3 64.21,57.74 c -0.74,-0.4 -1.47,-0.8 -2.22,-1.2 -0.39,-0.21 -0.81,-0.38 -1.32,-0.6 V 61 C 59.82,61.86 59,62.73 58.21,63.64 49.72,73.38 44.58,86.1 44.58,100 c 0,30.56 24.86,55.42 55.42,55.42 30.56,0 55.42,-24.86 55.42,-55.42 0,-13.9 -5.14,-26.62 -13.62,-36.35 z M 82.07,80.9 c 5.44,3.64 10.73,7.53 16.05,11.35 1.37,0.98 2.62,0.94 3.95,-0.03 2.45,-1.78 4.9,-3.55 7.38,-5.28 6.17,-4.3 12.31,-8.66 18.56,-12.84 2.94,-1.96 6.02,-3.73 9.08,-5.51 0.54,0.63 1.06,1.28 1.56,1.94 6.25,8.18 9.97,18.4 9.97,29.47 0,26.81 -21.81,48.62 -48.62,48.62 -26.81,0 -48.62,-21.81 -48.62,-48.62 0,-11.08 3.73,-21.31 10,-29.49 0.5,-0.66 1.02,-1.3 1.56,-1.93 6.4,4.06 12.82,8.11 19.13,12.32 z M 100,152.15 c -28.76,0 -52.15,-23.4 -52.15,-52.15 0,-11.91 4.02,-22.9 10.76,-31.69 0.66,-0.86 1.35,-1.69 2.06,-2.51 v 1.13 c 0.18,0.22 0.4,0.41 0.65,0.6 -0.53,0.63 -1.05,1.26 -1.54,1.92 -6.47,8.49 -10.32,19.08 -10.32,30.55 0,27.87 22.67,50.54 50.54,50.54 27.87,0 50.54,-22.67 50.54,-50.54 0,-11.42 -3.81,-21.97 -10.22,-30.44 -0.5,-0.66 -1.02,-1.31 -1.56,-1.94 0.12,-0.07 0.23,-0.14 0.35,-0.2 0.08,-0.05 0.16,-0.1 0.23,-0.15 V 65.8 c 0.8,0.91 1.56,1.85 2.3,2.82 6.6,8.74 10.52,19.61 10.52,31.38 -0.01,28.76 -23.4,52.15 -52.16,52.15 z"
   id="path18"
   style="fill:url(#SVGID_6_)" />
		<linearGradient
   id="SVGID_7_"
   gradientUnits="userSpaceOnUse"
   x1="100.0212"
   y1="21.754999"
   x2="100.0212"
   y2="93.7668">
			<stop
   offset="0"
   style="stop-color:#42210B"
   id="stop19" />
			<stop
   offset="0.4581"
   style="stop-color:#A47C52"
   id="stop20" />
			<stop
   offset="1"
   style="stop-color:#42210B"
   id="stop21" />
		</linearGradient>
		<path
   class="st8"
   d="m 100,47.85 c 11.42,0 21.99,3.69 30.58,9.94 1.05,-0.57 2.11,-1.14 3.18,-1.7 C 124.4,48.88 112.69,44.58 100,44.58 c -12.68,0 -24.37,4.28 -33.72,11.47 1.05,0.57 2.1,1.15 3.14,1.73 8.6,-6.24 19.17,-9.93 30.58,-9.93 z"
   id="path21"
   style="fill:url(#SVGID_7_)" />
		<linearGradient
   id="SVGID_8_"
   gradientUnits="userSpaceOnUse"
   x1="99.9916"
   y1="21.754999"
   x2="99.9916"
   y2="93.7668">
			<stop
   offset="0"
   style="stop-color:#42210B"
   id="stop22" />
			<stop
   offset="0.4581"
   style="stop-color:#A47C52"
   id="stop23" />
			<stop
   offset="1"
   style="stop-color:#42210B"
   id="stop24" />
		</linearGradient>
		<path
   class="st9"
   d="m 72.83,59.7 c 7.76,-5.25 17.11,-8.32 27.17,-8.32 10.04,0 19.38,3.06 27.13,8.29 0.62,-0.35 1.25,-0.69 1.87,-1.03 -8.22,-5.78 -18.22,-9.18 -29,-9.18 -10.79,0 -20.8,3.4 -29.02,9.19 0.62,0.35 1.23,0.7 1.85,1.05 z"
   id="path24"
   style="fill:url(#SVGID_8_)" />
	</g>
</g>
</svg>
