<?xml version="1.0" encoding="UTF-8" standalone="no"?>
<!-- Created with Inkscape (http://www.inkscape.org/) -->

<svg
   width="210mm"
   height="297mm"
   viewBox="0 0 210 297"
   version="1.1"
   id="svg1"
   inkscape:version="1.4 (e7c3feb1, 2024-10-09)"
   sodipodi:docname="sticky_dotsvg"
   xmlns:inkscape="http://www.inkscape.org/namespaces/inkscape"
   xmlns:sodipodi="http://sodipodi.sourceforge.net/DTD/sodipodi-0.dtd"
   xmlns="http://www.w3.org/2000/svg"
   xmlns:svg="http://www.w3.org/2000/svg">
  <sodipodi:namedview
     id="namedview1"
     pagecolor="#ffffff"
     bordercolor="#000000"
     borderopacity="0.25"
     inkscape:showpageshadow="2"
     inkscape:pageopacity="0.0"
     inkscape:pagecheckerboard="0"
     inkscape:deskcolor="#d1d1d1"
     inkscape:document-units="mm"
     showguides="true"
     inkscape:zoom="0.64"
     inkscape:cx="986.71875"
     inkscape:cy="775.78125"
     inkscape:window-width="2800"
     inkscape:window-height="1198"
     inkscape:window-x="1611"
     inkscape:window-y="349"
     inkscape:window-maximized="0"
     inkscape:current-layer="layer1" />
  <defs
     id="defs1" />
  <g
     inkscape:label="Layer 1"
     inkscape:groupmode="layer"
     id="layer1">
    <g
       id="g34"
       transform="translate(0,-1.5875)">
      <path
         id="path1"
         style="display:inline;stroke-width:5.74972"
         d="M 50.096273,272.91678 A 23.949551,23.949551 0 0 1 26.146723,296.86633 23.949551,23.949551 0 0 1 2.1971722,272.91678 23.949551,23.949551 0 0 1 26.146723,248.96723 23.949551,23.949551 0 0 1 50.096273,272.91678 Z" />
      <path
         id="use4"
         style="display:inline;stroke-width:5.74972"
         d="M 102.96319,272.91678 A 23.949551,23.949551 0 0 1 79.013642,296.86633 23.949551,23.949551 0 0 1 55.064091,272.91678 23.949551,23.949551 0 0 1 79.013642,248.96723 23.949551,23.949551 0 0 1 102.96319,272.91678 Z" />
      <path
         id="use6"
         style="display:inline;stroke-width:5.74972"
         d="m 155.35764,272.91678 a 23.949551,23.949551 0 0 1 -23.94955,23.94955 23.949551,23.949551 0 0 1 -23.94955,-23.94955 23.949551,23.949551 0 0 1 23.94955,-23.94955 23.949551,23.949551 0 0 1 23.94955,23.94955 z" />
      <path
         id="use8"
         style="display:inline;stroke-width:5.74972"
         d="m 207.80829,272.91678 a 23.949551,23.949551 0 0 1 -23.94955,23.94955 23.949551,23.949551 0 0 1 -23.94955,-23.94955 23.949551,23.949551 0 0 1 23.94955,-23.94955 23.949551,23.949551 0 0 1 23.94955,23.94955 z" />
      <path
         id="use9"
         style="display:inline;stroke-width:4.95022"
         d="M 73.077373,228.27869 A 20.619351,20.619351 0 0 1 52.458022,248.89804 20.619351,20.619351 0 0 1 31.838671,228.27869 20.619351,20.619351 0 0 1 52.458022,207.65934 20.619351,20.619351 0 0 1 73.077373,228.27869 Z" />
      <path
         id="use10"
         style="display:inline;stroke-width:4.95022"
         d="m 126.01861,228.26717 a 20.619351,20.619351 0 0 1 -20.61935,20.61935 20.619351,20.619351 0 0 1 -20.619354,-20.61935 20.619351,20.619351 0 0 1 20.619354,-20.61935 20.619351,20.619351 0 0 1 20.61935,20.61935 z" />
      <path
         id="use11"
         style="display:inline;stroke-width:4.95022"
         d="M 178.39871,228.41435 A 20.619351,20.619351 0 0 1 157.77935,249.0337 20.619351,20.619351 0 0 1 137.16,228.41435 20.619351,20.619351 0 0 1 157.77935,207.795 a 20.619351,20.619351 0 0 1 20.61936,20.61935 z" />
      <path
         id="use12"
         style="display:inline;stroke-width:4.95022"
         d="m 210.01044,207.66949 a 20.619351,20.619351 0 0 0 -0.30386,-0.0217 20.619351,20.619351 0 0 0 -20.6189,20.61941 20.619351,20.619351 0 0 0 20.6189,20.61942 20.619351,20.619351 0 0 0 0.30386,-0.0217 z" />
      <path
         id="path12"
         style="display:inline;stroke-width:4.95022"
         d="m 0.00310059,248.73055 a 20.619351,20.619351 0 0 0 0.12609049,0.009 20.619351,20.619351 0 0 0 20.61889692,-20.61941 20.619351,20.619351 0 0 0 -20.61889692,-20.61942 20.619351,20.619351 0 0 0 -0.12609049,0.009 z" />
      <path
         id="use13"
         style="display:inline;stroke-width:4.40705"
         d="M 44.062465,189.32114 A 18.356884,18.356884 0 0 1 25.705582,207.67802 18.356884,18.356884 0 0 1 7.3486999,189.32114 18.356884,18.356884 0 0 1 25.705582,170.96426 18.356884,18.356884 0 0 1 44.062465,189.32114 Z" />
      <path
         id="use14"
         style="display:inline;stroke-width:4.40705"
         d="m 97.283913,189.32114 a 18.356884,18.356884 0 0 1 -18.356856,18.35688 18.356884,18.356884 0 0 1 -18.35685,-18.35688 18.356884,18.356884 0 0 1 18.35685,-18.35688 18.356884,18.356884 0 0 1 18.356856,18.35688 z" />
      <path
         id="use15"
         style="display:inline;stroke-width:4.40705"
         d="m 150.1433,189.32114 a 18.356884,18.356884 0 0 1 -18.35689,18.35688 18.356884,18.356884 0 0 1 -18.35688,-18.35688 18.356884,18.356884 0 0 1 18.35688,-18.35688 18.356884,18.356884 0 0 1 18.35689,18.35688 z" />
      <path
         id="use16"
         style="display:inline;stroke-width:4.40705"
         d="m 202.51659,189.32114 a 18.356884,18.356884 0 0 1 -18.35688,18.35688 18.356884,18.356884 0 0 1 -18.35689,-18.35688 18.356884,18.356884 0 0 1 18.35689,-18.35688 18.356884,18.356884 0 0 1 18.35688,18.35688 z" />
      <path
         id="use20"
         style="display:inline;stroke-width:3.73572"
         d="m 0.00310059,170.86657 a 15.56055,15.56055 0 0 0 0.2490804,0.0176 15.56055,15.56055 0 0 0 15.56029101,-15.56029 15.56055,15.56055 0 0 0 -15.56029101,-15.5608 15.56055,15.56055 0 0 0 -0.2490804,0.0181 z" />
      <path
         id="use21"
         style="display:inline;stroke-width:3.73572"
         d="M 120.82013,155.32361 A 15.56055,15.56055 0 0 1 105.2596,170.88416 15.56055,15.56055 0 0 1 89.699073,155.32361 15.56055,15.56055 0 0 1 105.2596,139.76307 15.56055,15.56055 0 0 1 120.82013,155.32361 Z" />
      <path
         id="use22"
         style="display:inline;stroke-width:3.73572"
         d="m 173.28047,155.32361 a 15.56055,15.56055 0 0 1 -15.56056,15.56055 15.56055,15.56055 0 0 1 -15.56055,-15.56055 15.56055,15.56055 0 0 1 15.56055,-15.56054 15.56055,15.56055 0 0 1 15.56056,15.56054 z" />
      <path
         id="use23"
         style="display:inline;stroke-width:3.73572"
         d="m 210.03628,139.77183 a 15.56055,15.56055 0 0 0 -0.12093,-0.009 15.56055,15.56055 0 0 0 -15.56029,15.5608 15.56055,15.56055 0 0 0 15.56029,15.56029 15.56055,15.56055 0 0 0 0.12093,-0.009 z" />
      <path
         id="use24"
         style="display:inline;stroke-width:3.73572"
         d="m 68.131329,155.32361 a 15.56055,15.56055 0 0 1 -15.56053,15.56055 15.56055,15.56055 0 0 1 -15.560527,-15.56055 15.56055,15.56055 0 0 1 15.560527,-15.56054 15.56055,15.56055 0 0 1 15.56053,15.56054 z" />
      <path
         id="use25"
         style="display:inline;stroke-width:3.13505"
         d="M 39.456881,126.91875 A 13.058567,13.058567 0 0 1 26.398315,139.97732 13.058567,13.058567 0 0 1 13.339749,126.91875 13.058567,13.058567 0 0 1 26.398315,113.8602 13.058567,13.058567 0 0 1 39.456881,126.91875 Z" />
      <path
         id="use26"
         style="display:inline;stroke-width:3.13505"
         d="m 145.04279,126.91875 a 13.058567,13.058567 0 0 1 -13.05855,13.05857 13.058567,13.058567 0 0 1 -13.05854,-13.05857 13.058567,13.058567 0 0 1 13.05854,-13.05855 13.058567,13.058567 0 0 1 13.05855,13.05855 z" />
      <path
         id="use27"
         style="display:inline;stroke-width:3.13505"
         d="m 197.53469,126.91875 a 13.058567,13.058567 0 0 1 -13.05857,13.05857 13.058567,13.058567 0 0 1 -13.05857,-13.05857 13.058567,13.058567 0 0 1 13.05857,-13.05855 13.058567,13.058567 0 0 1 13.05857,13.05855 z" />
      <path
         id="use29"
         style="display:inline;stroke-width:3.13505"
         d="m 92.359163,126.91875 a 13.058567,13.058567 0 0 1 -13.05855,13.05857 13.058567,13.058567 0 0 1 -13.058548,-13.05857 13.058567,13.058567 0 0 1 13.058548,-13.05855 13.058567,13.058567 0 0 1 13.05855,13.05855 z" />
      <path
         id="use30"
         style="display:inline;stroke-width:2.42839"
         d="M 0,114.07366 A 10.115058,10.115058 0 0 0 10.064502,103.95955 10.115058,10.115058 0 0 0 0,93.848018 Z" />
      <path
         id="use31"
         style="display:inline;stroke-width:2.42839"
         d="M 115.11163,103.95939 A 10.115058,10.115058 0 0 1 104.99658,114.07445 10.115058,10.115058 0 0 1 94.881538,103.95939 10.115058,10.115058 0 0 1 104.99658,93.844339 10.115058,10.115058 0 0 1 115.11163,103.95939 Z" />
      <path
         id="use32"
         style="display:inline;stroke-width:2.42839"
         d="m 168.26321,103.95939 a 10.115058,10.115058 0 0 1 -10.11506,10.11506 10.115058,10.115058 0 0 1 -10.11506,-10.11506 10.115058,10.115058 0 0 1 10.11506,-10.115051 10.115058,10.115058 0 0 1 10.11506,10.115051 z" />
      <path
         id="use33"
         style="display:inline;stroke-width:2.42839"
         d="m 210.02542,93.847502 a 10.115058,10.115058 0 0 0 -10.07122,10.112048 10.115058,10.115058 0 0 0 10.07122,10.11204 z" />
      <path
         id="use34"
         style="display:inline;stroke-width:2.42839"
         d="M 62.869865,103.95939 A 10.115058,10.115058 0 0 1 52.75482,114.07445 10.115058,10.115058 0 0 1 42.639777,103.95939 10.115058,10.115058 0 0 1 52.75482,93.844339 10.115058,10.115058 0 0 1 62.869865,103.95939 Z" />
    </g>
  </g>
</svg>
